<svg width="190" height="56" viewBox="0 0 190 56" fill="none" xmlns="http://www.w3.org/2000/svg">
<path d="M1.63477 12.8906H2.90039V42H1.63477V12.8906ZM9.22852 12.8906H10.4941V35.6719H20.6191V36.9375H10.4941V38.2031H20.6191V39.4688H10.4941V40.7344H20.6191V42H9.22852V12.8906ZM6.69727 12.8906H7.96289V42H6.69727V12.8906ZM4.16602 12.8906H5.43164V42H4.16602V12.8906ZM31.0254 16.6875H32.291V42H31.0254V16.6875ZM28.4941 16.6875H29.7598V42H28.4941V16.6875ZM25.9629 16.6875H27.2285V42H25.9629V16.6875ZM23.4316 16.6875H24.6973V42H23.4316V16.6875ZM55.4238 29.2031C55.4121 29.2031 55.4062 29.209 55.4062 29.2207C55.9688 29.7949 56.4375 30.5039 56.8125 31.3477C57.1875 32.1914 57.375 33.0469 57.375 33.9141C57.375 35.8008 56.7246 37.3887 55.4238 38.6777C54.1348 39.9551 52.5879 40.5938 50.7832 40.5938H42.7852V41.8594H50.7832C52.2129 41.8594 53.5137 41.5488 54.6855 40.9277C55.8691 40.3066 56.8242 39.3867 57.5508 38.168C58.2773 36.9375 58.6406 35.5195 58.6406 33.9141C58.6406 32.2383 58.1367 30.7031 57.1289 29.3086C58.1367 27.9609 58.6406 26.3496 58.6406 24.4746C58.6406 23.1035 58.2832 21.8203 57.5684 20.625C56.8535 19.418 55.8867 18.4629 54.668 17.7598C53.4609 17.0449 52.166 16.6875 50.7832 16.6875H35.5957V42H36.8613V17.9531H50.7832C52.5645 17.9531 54.1055 18.6035 55.4062 19.9043C56.7188 21.1934 57.375 22.7168 57.375 24.4746C57.375 26.3262 56.7129 27.8965 55.3887 29.1855L55.4238 29.2031ZM50.7832 35.5312C51.2168 35.5312 51.5801 35.3906 51.873 35.1094C52.166 34.8281 52.3125 34.4297 52.3125 33.9141C52.3125 33.4922 52.1543 33.1172 51.8379 32.7891C51.5332 32.4609 51.1816 32.2969 50.7832 32.2969H42.7676V31.0312H50.7832C51.5215 31.0312 52.1719 31.3242 52.7344 31.9102C53.2969 32.4844 53.5781 33.1523 53.5781 33.9141C53.5781 34.793 53.3027 35.4961 52.752 36.0234C52.2129 36.5391 51.5566 36.7969 50.7832 36.7969H42.7852V35.5312H50.7832ZM50.7832 38.0625C51.8965 38.0625 52.8516 37.6758 53.6484 36.9023C54.4453 36.1289 54.8438 35.1328 54.8438 33.9141C54.8438 32.8125 54.4336 31.8457 53.6133 31.0137C52.8047 30.1816 51.8613 29.7656 50.7832 29.7656H46.916H42.7852V28.5H46.916H50.7832C51.8965 28.5 52.8516 28.125 53.6484 27.375C54.4453 26.6133 54.8438 25.6465 54.8438 24.4746C54.8438 23.4199 54.4336 22.4941 53.6133 21.6973C52.8047 20.8887 51.8613 20.4844 50.7832 20.4844H39.3926V42H38.127V19.2188H50.7832C52.2129 19.2188 53.4551 19.7461 54.5098 20.8008C55.5762 21.8438 56.1094 23.0684 56.1094 24.4746C56.1094 25.5059 55.8457 26.4375 55.3184 27.2695C54.8027 28.0898 54.1172 28.7227 53.2617 29.168C54.1172 29.6367 54.8027 30.3047 55.3184 31.1719C55.8457 32.0273 56.1094 32.9414 56.1094 33.9141C56.1094 35.4492 55.582 36.7383 54.5273 37.7812C53.4844 38.8125 52.2363 39.3281 50.7832 39.3281H42.7852V38.0625H50.7832ZM50.7832 25.9688C51.2168 25.9688 51.5801 25.8398 51.873 25.582C52.166 25.3242 52.3125 24.9551 52.3125 24.4746C52.3125 24.0996 52.1543 23.7656 51.8379 23.4727C51.5332 23.168 51.1816 23.0156 50.7832 23.0156H41.9238V42H40.6582V21.75H50.7832C51.5215 21.75 52.1719 22.0254 52.7344 22.5762C53.2969 23.127 53.5781 23.7598 53.5781 24.4746C53.5781 25.3184 53.3086 25.9922 52.7695 26.4961C52.2305 26.9883 51.5684 27.2344 50.7832 27.2344H42.7852V25.9688H50.7832ZM71.1035 29.9062H78.7324C79.7402 29.9062 80.5957 29.5898 81.2988 28.957C82.002 28.3242 82.3535 27.4336 82.3535 26.2852C82.3535 25.4414 81.9844 24.6855 81.2461 24.0176C80.5195 23.3496 79.6816 23.0156 78.7324 23.0156H67.8691V42H66.6035V21.75H78.7324C80.0332 21.75 81.1699 22.207 82.1426 23.1211C83.127 24.0352 83.6191 25.0898 83.6191 26.2852C83.6191 27.7734 83.1445 28.9629 82.1953 29.8535C81.2461 30.7324 80.0918 31.1719 78.7324 31.1719H71.1035V29.9062ZM71.1035 32.4375H78.7324C80.4199 32.4375 81.8672 31.8633 83.0742 30.7148C84.2812 29.5664 84.8848 28.0898 84.8848 26.2852C84.8848 24.75 84.2695 23.4023 83.0391 22.2422C81.8086 21.0703 80.373 20.4844 78.7324 20.4844H65.3379V42H64.0723V19.2188H78.7324C80.7246 19.2188 82.459 19.9277 83.9355 21.3457C85.4121 22.752 86.1504 24.3984 86.1504 26.2852C86.1504 28.3945 85.418 30.1582 83.9531 31.5762C82.5 32.9941 80.7598 33.7031 78.7324 33.7031H71.1035V32.4375ZM71.1035 34.9688H78.7324C80.291 34.9688 81.7324 34.5938 83.0566 33.8438C84.3809 33.0938 85.4355 32.0508 86.2207 30.7148C87.0176 29.3789 87.416 27.9023 87.416 26.2852C87.416 24.8203 87.0234 23.4492 86.2383 22.1719C85.4531 20.8828 84.3867 19.8574 83.0391 19.0957C81.7031 18.334 80.2676 17.9531 78.7324 17.9531H62.8066V42H61.541V16.6875H78.7324C80.0566 16.6875 81.3281 16.9512 82.5469 17.4785C83.7773 17.9941 84.8379 18.6855 85.7285 19.5527C86.6191 20.4082 87.334 21.4277 87.873 22.6113C88.4121 23.7949 88.6816 25.0195 88.6816 26.2852C88.6816 28.3359 88.2129 30.1289 87.2754 31.6641C86.3379 33.1875 85.0781 34.3477 83.4961 35.1445L86.1504 42H84.7969L82.2832 35.6543C81.9668 35.7598 81.5977 35.8652 81.1758 35.9707L83.5488 42H82.1953L79.875 36.1816C79.5117 36.2168 79.1309 36.2344 78.7324 36.2344L80.9648 42H79.6289L77.4141 36.2344H76.2715L78.3984 42H77.0625L74.918 36.2344H71.1035V34.9688ZM70.4004 42H69.1348V24.2812H78.7324C79.3887 24.2812 79.9453 24.4805 80.4023 24.8789C80.8594 25.2656 81.0879 25.7344 81.0879 26.2852C81.0879 27.8555 80.3027 28.6406 78.7324 28.6406H71.1035V27.375H78.7324C79.459 27.375 79.8223 27.0117 79.8223 26.2852C79.8223 26.0859 79.7109 25.916 79.4883 25.7754C79.2773 25.623 79.0254 25.5469 78.7324 25.5469H70.4004V42ZM109.459 29.5195C109.459 28.0195 108.996 26.8594 108.07 26.0391C107.145 25.2188 105.92 24.8086 104.396 24.8086C103.107 24.8086 102 25.2539 101.074 26.1445C100.148 27.0352 99.6855 28.1016 99.6855 29.3438C99.6855 30.0469 99.7793 30.6797 99.9668 31.2422C100.154 31.793 100.406 32.2559 100.723 32.6309C101.051 32.9941 101.438 33.2988 101.883 33.5449C102.328 33.7793 102.791 33.9492 103.271 34.0547C103.764 34.1602 104.285 34.2129 104.836 34.2129C106.172 34.2129 107.391 33.8848 108.492 33.2285V34.4941C107.355 35.0918 106.131 35.3906 104.818 35.3906C103.975 35.3906 103.178 35.2793 102.428 35.0566C101.689 34.8223 101.016 34.4766 100.406 34.0195C99.7969 33.5508 99.3105 32.918 98.9473 32.1211C98.5957 31.3125 98.4199 30.3867 98.4199 29.3438C98.4199 27.7266 98.9883 26.3555 100.125 25.2305C101.262 24.1055 102.686 23.543 104.396 23.543C106.283 23.543 107.807 24.0762 108.967 25.1426C110.139 26.1973 110.725 27.6562 110.725 29.5195V42H109.459V29.5195ZM113.256 29.5195V42H111.99V29.5195C111.99 27.3047 111.281 25.5469 109.863 24.2461C108.445 22.9336 106.623 22.2773 104.396 22.2773C102.334 22.2773 100.611 22.9629 99.2285 24.334C97.8457 25.7051 97.1543 27.375 97.1543 29.3438C97.1543 30.5391 97.3594 31.6113 97.7695 32.5605C98.1914 33.5098 98.7598 34.2715 99.4746 34.8457C100.189 35.4199 100.986 35.8594 101.865 36.1641C102.756 36.457 103.693 36.6035 104.678 36.6035C106.014 36.6035 107.285 36.293 108.492 35.6719V37.0078C107.227 37.5352 105.949 37.7988 104.66 37.7988C103.5 37.7988 102.398 37.623 101.355 37.2715C100.312 36.9082 99.3809 36.3867 98.5605 35.707C97.7402 35.0156 97.0898 34.125 96.6094 33.0352C96.1289 31.9336 95.8887 30.7031 95.8887 29.3438C95.8887 27.0352 96.7031 25.0723 98.332 23.4551C99.9727 21.8262 101.994 21.0117 104.396 21.0117C106.084 21.0117 107.596 21.3574 108.932 22.0488C110.268 22.7285 111.322 23.7188 112.096 25.0195C112.869 26.3203 113.256 27.8203 113.256 29.5195ZM115.787 29.5195V42H114.521V29.5195C114.521 27.5859 114.076 25.875 113.186 24.3867C112.307 22.8867 111.1 21.7383 109.564 20.9414C108.029 20.1445 106.307 19.7461 104.396 19.7461C102.58 19.7461 100.922 20.1797 99.4219 21.0469C97.9219 21.9023 96.7441 23.0625 95.8887 24.5273C95.0449 25.9922 94.623 27.5977 94.623 29.3438C94.623 30.8438 94.8984 32.2148 95.4492 33.457C96 34.6875 96.7383 35.7012 97.6641 36.498C98.6016 37.2949 99.6621 37.916 100.846 38.3613C102.041 38.7949 103.289 39.0117 104.59 39.0117C105.914 39.0117 107.215 38.7363 108.492 38.1855V39.4688C107.156 39.9727 105.844 40.2246 104.555 40.2246C102.527 40.2246 100.664 39.7676 98.9648 38.8535C97.2656 37.9395 95.9062 36.6445 94.8867 34.9688C93.8672 33.293 93.3574 31.418 93.3574 29.3438C93.3574 27.8672 93.6387 26.4609 94.2012 25.125C94.7754 23.7891 95.5488 22.6348 96.5215 21.6621C97.4941 20.6895 98.666 19.916 100.037 19.3418C101.408 18.7676 102.861 18.4805 104.396 18.4805C106.541 18.4805 108.475 18.9375 110.197 19.8516C111.932 20.7656 113.297 22.0664 114.293 23.7539C115.289 25.4414 115.787 27.3633 115.787 29.5195ZM118.318 29.5195V42H117.053V29.5195C117.053 27.1289 116.496 24.9961 115.383 23.1211C114.27 21.2344 112.752 19.7812 110.83 18.7617C108.908 17.7305 106.764 17.2148 104.396 17.2148C102.123 17.2148 100.043 17.7598 98.1562 18.8496C96.2695 19.9395 94.7871 21.416 93.709 23.2793C92.6309 25.1309 92.0918 27.1523 92.0918 29.3438C92.0918 30.7852 92.3203 32.1562 92.7773 33.457C93.2461 34.7461 93.8789 35.877 94.6758 36.8496C95.4844 37.8105 96.4102 38.6426 97.4531 39.3457C98.5078 40.0488 99.6387 40.582 100.846 40.9453C102.064 41.3086 103.301 41.4902 104.555 41.4902C105.938 41.4902 107.25 41.2266 108.492 40.6992V42C107.191 42.457 105.855 42.6855 104.484 42.6855C103.066 42.6855 101.684 42.4863 100.336 42.0879C99 41.6895 97.7578 41.1035 96.6094 40.3301C95.4727 39.5449 94.4707 38.625 93.6035 37.5703C92.7363 36.5039 92.0566 35.2617 91.5645 33.8438C91.0723 32.4258 90.8262 30.9258 90.8262 29.3438C90.8262 27.5273 91.166 25.7988 91.8457 24.1582C92.5371 22.5059 93.4746 21.082 94.6582 19.8867C95.8535 18.6797 97.2949 17.7246 98.9824 17.0215C100.682 16.3066 102.486 15.9492 104.396 15.9492C106.342 15.9492 108.17 16.2773 109.881 16.9336C111.592 17.5898 113.068 18.5039 114.311 19.6758C115.553 20.8359 116.531 22.2656 117.246 23.9648C117.961 25.6641 118.318 27.5156 118.318 29.5195ZM131.01 29.9062H138.639C139.646 29.9062 140.502 29.5898 141.205 28.957C141.908 28.3242 142.26 27.4336 142.26 26.2852C142.26 25.4414 141.891 24.6855 141.152 24.0176C140.426 23.3496 139.588 23.0156 138.639 23.0156H127.775V42H126.51V21.75H138.639C139.939 21.75 141.076 22.207 142.049 23.1211C143.033 24.0352 143.525 25.0898 143.525 26.2852C143.525 27.7734 143.051 28.9629 142.102 29.8535C141.152 30.7324 139.998 31.1719 138.639 31.1719H131.01V29.9062ZM131.01 32.4375H138.639C140.326 32.4375 141.773 31.8633 142.98 30.7148C144.188 29.5664 144.791 28.0898 144.791 26.2852C144.791 24.75 144.176 23.4023 142.945 22.2422C141.715 21.0703 140.279 20.4844 138.639 20.4844H125.244V42H123.979V19.2188H138.639C140.631 19.2188 142.365 19.9277 143.842 21.3457C145.318 22.752 146.057 24.3984 146.057 26.2852C146.057 28.3945 145.324 30.1582 143.859 31.5762C142.406 32.9941 140.666 33.7031 138.639 33.7031H131.01V32.4375ZM131.01 34.9688H138.639C140.197 34.9688 141.639 34.5938 142.963 33.8438C144.287 33.0938 145.342 32.0508 146.127 30.7148C146.924 29.3789 147.322 27.9023 147.322 26.2852C147.322 24.8203 146.93 23.4492 146.145 22.1719C145.359 20.8828 144.293 19.8574 142.945 19.0957C141.609 18.334 140.174 17.9531 138.639 17.9531H122.713V42H121.447V16.6875H138.639C139.963 16.6875 141.234 16.9512 142.453 17.4785C143.684 17.9941 144.744 18.6855 145.635 19.5527C146.525 20.4082 147.24 21.4277 147.779 22.6113C148.318 23.7949 148.588 25.0195 148.588 26.2852C148.588 28.3359 148.119 30.1289 147.182 31.6641C146.244 33.1875 144.984 34.3477 143.402 35.1445L146.057 42H144.703L142.189 35.6543C141.873 35.7598 141.504 35.8652 141.082 35.9707L143.455 42H142.102L139.781 36.1816C139.418 36.2168 139.037 36.2344 138.639 36.2344L140.871 42H139.535L137.32 36.2344H136.178L138.305 42H136.969L134.824 36.2344H131.01V34.9688ZM130.307 42H129.041V24.2812H138.639C139.295 24.2812 139.852 24.4805 140.309 24.8789C140.766 25.2656 140.994 25.7344 140.994 26.2852C140.994 27.8555 140.209 28.6406 138.639 28.6406H131.01V27.375H138.639C139.365 27.375 139.729 27.0117 139.729 26.2852C139.729 26.0859 139.617 25.916 139.395 25.7754C139.184 25.623 138.932 25.5469 138.639 25.5469H130.307V42ZM174.375 16.6875H175.641L167.678 33.457V42H166.412V33.457L174.375 16.6875ZM171.844 16.6875H173.109L165.146 33.457V42H163.881V33.457L171.844 16.6875ZM169.312 16.6875H170.578L162.615 33.457V42H161.35V33.457L169.312 16.6875ZM166.781 16.6875H168.047L160.084 33.457V42H158.818V33.457L150.328 16.6875H151.594L159.434 32.1738L166.781 16.6875ZM152.877 16.6875H154.143L160.418 28.623L159.785 30.0117L152.877 16.6875ZM155.408 16.6875H156.691L161.684 25.8457L161.033 27.2344L155.408 16.6875ZM157.975 16.6875H159.24L162.949 23.0859L162.316 24.4746L157.975 16.6875Z" fill="#3B9DF8"/>
<circle cx="185" cy="18" r="5" fill="#FF8800"/>
</svg>
