<svg xmlns="http://www.w3.org/2000/svg" version="1.1" viewBox="0 0 1800 1440" width="450" height="360">
<path transform="translate(1131,627)" d="m0 0h40l17 3 18 6 14 7 11 8 11 9 9 9 12 17 13 22 6 14 11 31 6 25 2 15 1 16-2 1-12-23-9-20-6-10-13-16-7-8-11-10-15-11-15-8-18-5-21-4-8-1h-18l-23 3-31 7-30 11-13 5-24 10-25 12-25 13-15 10-4 4 1 4 10 8 10 7 20 15 11 8 9 7 14 10 20 14 17 12 41 27 27 15 19 10 23 11 27 11 15 5 23 6 28 7 7 3v2h-49l-29-5-40-9-33-11-40-17-36-17-14-8-12-6-17-10-13-8-17-10-13-8-24-15-12-7-10-8-14-11h-6l-19 10-15 10-14 8-10 6-11 7-13 8-19 12-21 12-29 15-28 14-17 7-15 7-29 11-30 9-18 5-13 4-27 5h-50l-6-1v-2l25-5 27-7 35-11 28-11 32-16 23-13 17-11 15-10 19-12 28-21 20-14 18-13 20-14 16-13 10-8 16-12 15-12 11-7 12-9 22-15 12-9 10-6 14-9 16-9 18-10 25-13 30-12 20-7 25-7 16-3z" fill="#1E6FAF"/>
<path transform="translate(630,627)" d="m0 0h43l23 3 36 10 19 7 28 12 19 10 16 8 17 9 17 11 16 10 12 9-2 4-8 7-19 14-14 9h-2l-1 3-5 1-21-9-32-15-19-9-32-13-22-7-36-6-11-1h-20l-20 3-17 5-18 8-10 7-8 6-12 11-9 9-12 17-11 19-11 25-7 14-1-3 2-20 4-26 12-42 12-28 10-16 11-14 14-14 17-12 14-7 19-6z" fill="#F19C44"/>
<path transform="translate(893,531)" d="m0 0h10l16 4 15 8 11 9 8 10 8 16 2 8 1 9v14l-4 20-5 9-9 10-9 9-9 5-10 5-12 3h-14l-19-4-12-5-8-6-14-14-7-14-4-16v-21l3-13 7-14 9-11 9-8 10-6 15-5z" fill="#F19C44"/>
<path transform="translate(955,770)" d="m0 0 5 5 14 10 20 15 11 8 10 8 10 7 34 24 43 29 17 10 22 12 15 8 23 11 27 11 15 5 23 6 28 7 7 3v2h-49l-29-5-40-9-33-11-40-17-36-17-14-8-12-6-17-10-13-8-17-10-13-8-24-15-12-7-10-8-14-11-4-2 9-3 19-12 15-10z" fill="#F19C44"/>
</svg>